<svg xmlns="http://www.w3.org/2000/svg" width="128" height="128" viewBox="0 0 8030 7570"><path d="M1890 6954c-704-98-1299-530-1610-1169-99-203-153-368-195-600-22-121-31-468-16-616 45-436 206-834 468-1159 73-90 245-258 328-320 110-82 297-252 513-465 327-321 499-518 785-899 163-217 276-341 402-443 294-238 642-391 1052-465 112-20 161-23 393-23 295 0 381 10 615 70 166 42 298 91 455 170 331 166 530 343 817 725 262 350 454 570 755 865 214 210 357 340 513 464 255 202 434 421 575 701 141 281 208 538 231 888 76 1161-754 2164-1890 2283-165 17-477 6-606-21-246-52-525-172-690-297-477-360-692-941-565-1523 27-125 54-201 120-337 182-373 497-621 902-710 63-13 123-18 248-17 143 1 178 4 261 26 424 113 717 421 795 835 21 111 15 366-11 458-41 147-146 312-257 404-82 67-223 137-318 157-162 34-370 0-509-84-199-120-308-298-319-517-10-225 93-417 282-527 39-23 81-50 93-61 66-58 15-177-74-177-19 0-63 13-99 30-182 82-331 240-407 431-41 103-50 156-50 289 1 144 21 238 78 359 217 457 811 664 1281 446 257-118 473-364 567-645 47-141 61-234 61-395-1-338-121-635-358-882-223-234-521-397-907-499-112-29-192-61-240-95-28-20-77-103-94-159-4-14-27-64-50-112-171-347-479-582-875-669-405-88-849-3-1150 222-136 101-289 279-360 419-12 24-42 91-67 149-24 58-54 116-66 129-37 40-130 81-267 117-616 164-1025 494-1189 958-113 321-95 671 49 958 128 257 355 461 604 544 192 63 438 61 629-4 304-105 525-333 609-628 29-103 32-314 4-412-42-152-114-269-236-384-89-84-235-167-294-167-45 0-92 32-105 73-19 57 4 97 81 142 152 89 237 182 286 314 34 90 42 265 17 361-41 159-175 326-320 402-127 66-202 83-355 82-150-1-202-13-335-82-107-56-247-200-307-317-67-130-88-214-95-371-9-210 23-367 112-544 240-478 811-696 1350-516 292 98 494 254 670 517 226 337 301 776 200 1180-111 443-434 824-851 1003-111 47-279 100-399 126-132 29-504 37-665 14z"/></svg>