<svg class="icon" viewBox="0 0 1024 1024" xmlns="http://www.w3.org/2000/svg" width="128" height="128"><defs><style/></defs><path d="M975.659 143.957a42.667 42.667 0 00-36.95-21.418l-212.053-.171H570.837a42.752 42.752 0 00-34.858 18.133l-23.851 33.963-24.064-34.048a42.581 42.581 0 00-34.816-18.048H297.301l-212.181 1.11a42.667 42.667 0 00-36.608 64.255l427.52 729.856a42.667 42.667 0 0036.821 21.078 42.667 42.667 0 0036.864-21.163l425.814-730.795a42.752 42.752 0 00.128-42.752zm-544.512 63.744l46.293 65.408a42.624 42.624 0 0034.816 18.048h.043a42.795 42.795 0 0034.858-18.133l45.91-65.237 58.154-.086-138.41 232.704-139.734-232.704zm81.578 603.734L159.573 208.427l113.92-.64L476.331 545.62a42.667 42.667 0 0036.565 20.694h.256a42.667 42.667 0 0036.565-20.864L750.592 207.7l113.92.128z"/></svg>