<?xml version="1.0" encoding="utf-8"?>
<svg version="1.1" id="Layer_1"
     xmlns="http://www.w3.org/2000/svg"
     width="550px" height="400px"
     xml:space="preserve">
<g id="PathID_1" transform="matrix(10.7099, 0, 0, 10.7099, 76.4, 396.15)" opacity="1">
<path style="fill: #41b882; fill-opacity: 1;"
      d="M3.75 -36.65L18.4 -36.65Q22.75 -36.65 24.85 -36.25Q27 -35.9 28.7 -34.75Q30.4 -33.6 31.5 -31.7Q32.65 -29.8 32.65 -27.4Q32.65 -24.85 31.25 -22.7Q29.85 -20.55 27.5 -19.5Q30.85 -18.5 32.65 -16.15Q34.45 -13.8 34.45 -10.6Q34.45 -8.1 33.25 -5.75Q32.1 -3.4 30.1 -1.95Q28.1 -0.55 25.15 -0.25Q23.3 -0.05 16.2 0L3.75 0L3.75 -36.65M11.15 -30.55L11.15 -22.1L16 -22.1Q20.3 -22.1 21.35 -22.2Q23.25 -22.4 24.35 -23.5Q25.45 -24.6 25.45 -26.35Q25.45 -28.05 24.5 -29.1Q23.55 -30.2 21.7 -30.4Q20.6 -30.55 15.4 -30.55L11.15 -30.55M11.15 -16L11.15 -6.2L18 -6.2Q22 -6.2 23.05 -6.4Q24.7 -6.7 25.75 -7.85Q26.8 -9.05 26.8 -11Q26.8 -12.65 26 -13.8Q25.2 -14.95 23.65 -15.45Q22.15 -16 17.1 -16L11.15 -16"/>
</g>
  <g id="PathID_2" transform="matrix(10.7099, 0, 0, 10.7099, 76.4, 396.15)" opacity="1">
</g>
  <g id="PathID_3" transform="matrix(5.31826, 0, 0, 2.59618, 172.9, 161.55)" opacity="1">
<path style="fill: #35495e; fill-opacity: 1;"
      d="M3.75 -36.65L17.25 -36.65Q21.8 -36.65 24.2 -35.95Q27.45 -35 29.75 -32.55Q32.05 -30.15 33.25 -26.6Q34.45 -23.1 34.45 -17.95Q34.45 -13.45 33.3 -10.15Q31.95 -6.15 29.4 -3.7Q27.45 -1.8 24.2 -0.75Q21.75 0 17.65 0L3.75 0L3.75 -36.65M11.15 -30.45L11.15 -6.2L16.65 -6.2Q19.75 -6.2 21.1 -6.55Q22.9 -6.95 24.1 -8Q25.3 -9.1 26.05 -11.55Q26.8 -14.05 26.8 -18.3Q26.8 -22.55 26.05 -24.8Q25.3 -27.1 23.95 -28.35Q22.6 -29.65 20.5 -30.1Q18.95 -30.45 14.45 -30.45L11.15 -30.45"/>
</g>
  <g id="PathID_4" transform="matrix(5.31826, 0, 0, 2.59618, 172.9, 161.55)" opacity="1">
</g>
  <g id="PathID_5" transform="matrix(5.78477, 0, 0, 3.1825, 171.7, 333.8)" opacity="1">
<path style="fill: #35495e; fill-opacity: 1;"
      d="M3.75 -36.65L17.25 -36.65Q21.8 -36.65 24.2 -35.95Q27.45 -35 29.75 -32.55Q32.05 -30.15 33.25 -26.6Q34.45 -23.1 34.45 -17.95Q34.45 -13.45 33.3 -10.15Q31.95 -6.15 29.4 -3.7Q27.45 -1.8 24.2 -0.75Q21.75 0 17.65 0L3.75 0L3.75 -36.65M11.15 -30.45L11.15 -6.2L16.65 -6.2Q19.75 -6.2 21.1 -6.55Q22.9 -6.95 24.1 -8Q25.3 -9.1 26.05 -11.55Q26.8 -14.05 26.8 -18.3Q26.8 -22.55 26.05 -24.8Q25.3 -27.1 23.95 -28.35Q22.6 -29.65 20.5 -30.1Q18.95 -30.45 14.45 -30.45L11.15 -30.45"/>
</g>
  <g id="PathID_6" transform="matrix(5.78477, 0, 0, 3.1825, 171.7, 333.8)" opacity="1">
</g>
</svg>
