<svg xmlns="http://www.w3.org/2000/svg" viewBox="0 0 24 24">
  <path fill="none" d="M0 0h24v24H0z"/>
  <path
    d="M19.913 14.529a31.977 31.977 0 00-.675-1.886l-.91-2.246c0-.026.012-.468.012-.696C18.34 5.86 16.507 2 12 2S5.66 5.86 5.66 9.7c0 .229.011.671.012.697l-.91 2.246a32.777 32.777 0 00-.675 1.886c-.86 2.737-.581 3.87-.369 3.895.455.054 1.771-2.06 1.771-2.06 0 1.224.637 2.822 2.016 3.976-.515.157-1.147.399-1.554.695-.365.267-.319.54-.253.65.289.481 4.955.307 6.303.157 1.347.15 6.014.324 6.302-.158.066-.11.112-.382-.253-.649-.407-.296-1.039-.538-1.555-.696 1.379-1.153 2.016-2.751 2.016-3.976 0 0 1.316 2.115 1.771 2.06.212-.025.49-1.157-.37-3.894"/>
</svg>
